<svg xmlns="http://www.w3.org/2000/svg" width="21.694" height="21.694" viewBox="0 0 21.694 21.694">
  <g>
    <path d="M10.847,0A10.847,10.847,0,1,0,21.694,10.847,10.859,10.859,0,0,0,10.847,0Zm0,19.693a8.847,8.847,0,1,1,8.847-8.846A8.856,8.856,0,0,1,10.847,19.693Z" fill="#ffffff"/>
    <path d="M15.515,8.214a4.521,4.521,0,0,0-9.042,0A4.475,4.475,0,0,0,8.02,11.607L6.4,17.68h9.211l-1.717-6.018A4.516,4.516,0,0,0,15.515,8.214ZM12.961,15.68H9l1.316-4.934-.635-.39a2.525,2.525,0,1,1,2.557.032l-.678.39Z" fill="#ffffff"/>
  </g>
</svg>